<?xml version="1.0" standalone="no"?>
<svg xmlns="http://www.w3.org/2000/svg" viewBox="0 0 150.312 29" width="150.312" height="29"><g fill="#00ADB5" color="#00ADB5" transform="translate(0, 0) scale(0.6041667)"><svg width="48.0" height="48.0" x="0.0" y="0.0" viewBox="0 0 48 48"><path fill="currentColor" fill-rule="nonzero" d="M24 .21L.21 24 24 47.79 47.79 24 24 .21zM5.82 24L24 5.82l7.69 7.69-2.8 2.8L24 11.43 11.43 24l4.88 4.89-2.8 2.8L5.82 24zm25.15 0L24 30.97 17.03 24 24 17.03 30.97 24zM16.31 34.49l2.8-2.8L24 36.57 36.57 24l-4.89-4.89 2.8-2.8 7.7 7.69L24 42.18l-7.69-7.69z"></path></svg></g><line x1="41" y1="1" x2="41" y2="28" stroke="#00ADB5" stroke-linecap="round"></line><path fill="#00ADB5" fill-rule="nonzero" d="M0 21.67L0 1.06L6.34 1.06Q7.85 1.06 8.68 1.74Q9.50 2.42 9.79 3.66Q10.08 4.90 10.08 6.82L10.08 6.82Q10.08 8.57 9.62 9.55Q9.17 10.54 8.04 10.92L8.04 10.92Q8.98 11.11 9.40 11.86Q9.82 12.60 9.82 13.87L9.82 13.87L9.77 21.67L5.74 21.67L5.74 13.61Q5.74 12.74 5.40 12.50Q5.06 12.26 4.18 12.26L4.18 12.26L4.18 21.67L0 21.67ZM4.20 8.69L5.18 8.69Q6.05 8.69 6.05 6.82L6.05 6.82Q6.05 6 5.98 5.59Q5.90 5.18 5.71 5.03Q5.52 4.87 5.16 4.87L5.16 4.87L4.20 4.87L4.20 8.69ZM16.49 21.86Q11.23 21.86 11.23 16.42L11.23 16.42L11.23 9.36Q11.23 6.86 12.64 5.39Q14.04 3.91 16.49 3.91L16.49 3.91Q18.94 3.91 20.34 5.39Q21.74 6.86 21.74 9.36L21.74 9.36L21.74 16.42Q21.74 21.86 16.49 21.86L16.49 21.86ZM16.49 18.62Q16.99 18.62 17.23 18.26Q17.47 17.90 17.47 17.28L17.47 17.28L17.47 8.69Q17.47 7.15 16.49 7.15L16.49 7.15Q15.50 7.15 15.50 8.69L15.50 8.69L15.50 17.28Q15.50 17.90 15.74 18.26Q15.98 18.62 16.49 18.62L16.49 18.62ZM28.13 21.86Q22.92 21.86 22.92 16.58L22.92 16.58L22.94 15.19L27.14 15.19L27.17 17.26Q27.17 17.88 27.41 18.20Q27.65 18.53 28.20 18.53L28.20 18.53Q29.04 18.53 29.04 17.16L29.04 17.16Q29.04 16.15 28.64 15.58Q28.25 15 27.38 14.35L27.38 14.35L25.15 12.62Q24 11.74 23.50 10.79Q22.99 9.84 22.99 8.11L22.99 8.11Q22.99 6.77 23.70 5.82Q24.41 4.87 25.58 4.39Q26.76 3.91 28.20 3.91L28.20 3.91Q33.31 3.91 33.31 9L33.31 9L33.31 9.34L28.97 9.34L28.97 8.66Q28.97 8.04 28.76 7.60Q28.56 7.15 28.08 7.15L28.08 7.15Q27.65 7.15 27.42 7.40Q27.19 7.66 27.19 8.09L27.19 8.09Q27.19 9.05 27.94 9.58L27.94 9.58L30.53 11.47Q31.92 12.50 32.66 13.72Q33.41 14.93 33.41 16.78L33.41 16.78Q33.41 19.22 32.02 20.54Q30.62 21.86 28.13 21.86L28.13 21.86ZM38.33 21.86Q36.67 21.86 36.05 21.17Q35.42 20.47 35.42 18.94L35.42 18.94L35.42 7.97L34.25 7.97L34.25 4.78L35.42 4.78L35.42 1.06L39.50 1.06L39.50 4.78L40.70 4.78L40.70 7.97L39.50 7.97L39.50 17.83Q39.50 18.29 39.58 18.50Q39.65 18.72 39.96 18.72L39.96 18.72Q40.20 18.72 40.42 18.70Q40.63 18.67 40.70 18.67L40.70 18.67L40.70 21.55Q40.34 21.65 39.66 21.76Q38.98 21.86 38.33 21.86L38.33 21.86ZM46.20 2.93L42 2.93L42 0L46.20 0L46.20 2.93ZM46.20 21.67L42 21.67L42 4.10L46.20 4.10L46.20 21.67ZM52.68 21.86Q47.47 21.86 47.47 16.58L47.47 16.58L47.50 15.19L51.70 15.19L51.72 17.26Q51.72 17.88 51.96 18.20Q52.20 18.53 52.75 18.53L52.75 18.53Q53.59 18.53 53.59 17.16L53.59 17.16Q53.59 16.15 53.20 15.58Q52.80 15 51.94 14.35L51.94 14.35L49.70 12.62Q48.55 11.74 48.05 10.79Q47.54 9.84 47.54 8.11L47.54 8.11Q47.54 6.77 48.25 5.82Q48.96 4.87 50.14 4.39Q51.31 3.91 52.75 3.91L52.75 3.91Q57.86 3.91 57.86 9L57.86 9L57.86 9.34L53.52 9.34L53.52 8.66Q53.52 8.04 53.32 7.60Q53.11 7.15 52.63 7.15L52.63 7.15Q52.20 7.15 51.97 7.40Q51.74 7.66 51.74 8.09L51.74 8.09Q51.74 9.05 52.49 9.58L52.49 9.58L55.08 11.47Q56.47 12.50 57.22 13.72Q57.96 14.93 57.96 16.78L57.96 16.78Q57.96 19.22 56.57 20.54Q55.18 21.86 52.68 21.86L52.68 21.86ZM59.26 21.67L59.26 0.94L63.58 0.94L63.58 5.83Q64.25 3.91 66.14 3.91L66.14 3.91Q67.92 3.91 68.83 5.04Q69.74 6.17 69.74 8.14L69.74 8.14L69.74 21.67L65.54 21.67L65.54 8.40Q65.54 7.82 65.28 7.46Q65.02 7.10 64.51 7.10L64.51 7.10Q64.08 7.10 63.83 7.48Q63.58 7.85 63.58 8.38L63.58 8.38L63.58 21.67L59.26 21.67ZM75.53 21.67L71.38 21.67L71.38 0.94L75.53 0.94L75.53 10.15L77.54 4.10L81.89 4.10L79.25 11.74L82.61 21.67L78.14 21.67L75.53 13.39L75.53 21.67ZM87.34 2.93L83.14 2.93L83.14 0L87.34 0L87.34 2.93ZM87.34 21.67L83.14 21.67L83.14 4.10L87.34 4.10L87.34 21.67ZM88.99 21.67L88.99 4.10L93.19 4.10L93.19 6.34Q93.46 5.26 94.10 4.58Q94.75 3.91 95.83 3.91L95.83 3.91Q97.61 3.91 98.46 5.00Q99.31 6.10 99.31 8.11L99.31 8.11L99.31 21.67L95.18 21.67L95.18 8.54Q95.18 7.97 94.96 7.56Q94.73 7.15 94.25 7.15L94.25 7.15Q93.60 7.15 93.40 7.74Q93.19 8.33 93.19 9.31L93.19 9.31L93.19 21.67L88.99 21.67Z" transform="translate(51, 3.664)"></path></svg>